<svg xmlns="http://www.w3.org/2000/svg" viewBox="0 0 512 512" role="img" aria-labelledby="title desc">
  <title id="title">DienstplanRAD animiertes App Icon</title>
  <desc id="desc">Animierte gläserne Dienstplantabelle mit langsam wandernden Monatsfarben, Lichtreflexen und dezentem Tiefeneffekt.</desc>
  <style>
    .scene,.panel,.shimmer,.orb,.pill,.status{transform-box:fill-box;transform-origin:center}
    .scene{animation:sceneFloat 8s cubic-bezier(.42,0,.24,1) infinite alternate}
    .panel{animation:panelFloat 6.4s ease-in-out infinite}
    .orb-a{animation:orbA 13s ease-in-out infinite alternate}.orb-b{animation:orbB 15s ease-in-out infinite alternate}.orb-c{animation:orbC 11s ease-in-out infinite alternate}
    .shimmer{animation:shimmer 5.8s cubic-bezier(.35,0,.25,1) infinite}
    .pill-1{animation:pulse 5.6s ease-in-out infinite}.pill-2{animation:pulse 5.6s ease-in-out .7s infinite}.pill-3{animation:pulse 5.6s ease-in-out 1.4s infinite}.pill-4{animation:pulse 5.6s ease-in-out 2.1s infinite}
    .status{animation:statusPulse 2.8s ease-in-out infinite}
    .spectrum-a{animation:colorA 18s linear infinite}.spectrum-b{animation:colorB 18s linear infinite}.spectrum-c{animation:colorC 18s linear infinite}.spectrum-d{animation:colorD 18s linear infinite}.spectrum-e{animation:colorE 18s linear infinite}.spectrum-f{animation:colorF 18s linear infinite}
    @keyframes sceneFloat{to{transform:translateY(-3px) scale(1.006)}}
    @keyframes panelFloat{0%,100%{transform:translateY(0)}50%{transform:translateY(-5px)}}
    @keyframes orbA{to{transform:translate(26px,18px) scale(1.12)}}@keyframes orbB{to{transform:translate(-28px,-20px) scale(1.10)}}@keyframes orbC{to{transform:translate(18px,-24px) scale(1.15)}}
    @keyframes shimmer{0%,24%{transform:translateX(-220px);opacity:0}36%{opacity:.36}62%{opacity:.08}75%,100%{transform:translateX(260px);opacity:0}}
    @keyframes pulse{0%,100%{transform:scaleX(1);filter:saturate(1) brightness(1)}50%{transform:scaleX(1.06);filter:saturate(1.18) brightness(1.10)}}
    @keyframes statusPulse{0%,100%{transform:scale(1);opacity:.78}50%{transform:scale(1.38);opacity:1}}
    @keyframes colorA{0%,100%{stop-color:#4F8FBD}16.6%{stop-color:#B46483}33.3%{stop-color:#5D9476}50%{stop-color:#3C9B9B}66.6%{stop-color:#C66C5A}83.3%{stop-color:#94618F}}
    @keyframes colorB{0%,100%{stop-color:#8273BD}16.6%{stop-color:#4D9B62}33.3%{stop-color:#BD812D}50%{stop-color:#AA6F45}66.6%{stop-color:#657B9D}83.3%{stop-color:#416F62}}
    @keyframes colorC{0%,100%{stop-color:#5D9476}16.6%{stop-color:#3C9B9B}33.3%{stop-color:#C66C5A}50%{stop-color:#94618F}66.6%{stop-color:#4F8FBD}83.3%{stop-color:#B46483}}
    @keyframes colorD{0%,100%{stop-color:#3C9B9B}16.6%{stop-color:#BD812D}33.3%{stop-color:#AA6F45}50%{stop-color:#657B9D}66.6%{stop-color:#416F62}83.3%{stop-color:#8273BD}}
    @keyframes colorE{0%,100%{stop-color:#BD812D}16.6%{stop-color:#94618F}33.3%{stop-color:#4F8FBD}50%{stop-color:#B46483}66.6%{stop-color:#5D9476}83.3%{stop-color:#3C9B9B}}
    @keyframes colorF{0%,100%{stop-color:#C66C5A}16.6%{stop-color:#657B9D}33.3%{stop-color:#416F62}50%{stop-color:#8273BD}66.6%{stop-color:#4D9B62}83.3%{stop-color:#AA6F45}}
    @media (prefers-reduced-motion:reduce){*{animation:none!important}.shimmer{display:none}}
  </style>
  <defs>
    <linearGradient id="bg" x1="56" y1="34" x2="456" y2="478" gradientUnits="userSpaceOnUse"><stop offset="0" stop-color="#182330"/><stop offset="0.52" stop-color="#0D131B"/><stop offset="1" stop-color="#080B10"/></linearGradient>
    <radialGradient id="orbIce" cx="0" cy="0" r="1" gradientTransform="translate(126 122) rotate(38) scale(210)"><stop class="spectrum-a" stop-color="#4F8FBD" stop-opacity="0.78"/><stop offset="0.58" class="spectrum-a" stop-color="#4F8FBD" stop-opacity="0.18"/><stop offset="1" class="spectrum-a" stop-color="#4F8FBD" stop-opacity="0"/></radialGradient>
    <radialGradient id="orbCoral" cx="0" cy="0" r="1" gradientTransform="translate(406 366) rotate(-148) scale(228)"><stop class="spectrum-f" stop-color="#C66C5A" stop-opacity="0.72"/><stop offset="0.56" class="spectrum-f" stop-color="#C66C5A" stop-opacity="0.16"/><stop offset="1" class="spectrum-f" stop-color="#C66C5A" stop-opacity="0"/></radialGradient>
    <radialGradient id="orbSage" cx="0" cy="0" r="1" gradientTransform="translate(100 430) rotate(-30) scale(186)"><stop class="spectrum-c" stop-color="#5D9476" stop-opacity="0.56"/><stop offset="1" class="spectrum-c" stop-color="#5D9476" stop-opacity="0"/></radialGradient>
    <linearGradient id="frame" x1="118" y1="94" x2="392" y2="420" gradientUnits="userSpaceOnUse"><stop stop-color="#FFFFFF" stop-opacity="0.34"/><stop offset="0.42" stop-color="#EAF2F9" stop-opacity="0.18"/><stop offset="1" stop-color="#DCE7F0" stop-opacity="0.10"/></linearGradient>
    <linearGradient id="frameStroke" x1="126" y1="100" x2="386" y2="418" gradientUnits="userSpaceOnUse"><stop stop-color="#FFFFFF" stop-opacity="0.82"/><stop offset="0.44" stop-color="#FFFFFF" stop-opacity="0.30"/><stop offset="1" stop-color="#FFFFFF" stop-opacity="0.11"/></linearGradient>
    <linearGradient id="header" x1="138" y1="122" x2="374" y2="177" gradientUnits="userSpaceOnUse"><stop stop-color="#FFFFFF" stop-opacity="0.30"/><stop offset="1" stop-color="#FFFFFF" stop-opacity="0.10"/></linearGradient>
    <linearGradient id="monthSpectrum" x1="0" y1="0" x2="0" y2="1"><stop class="spectrum-a" offset="0" stop-color="#4F8FBD"/><stop class="spectrum-b" offset="0.2" stop-color="#8273BD"/><stop class="spectrum-c" offset="0.4" stop-color="#5D9476"/><stop class="spectrum-d" offset="0.6" stop-color="#3C9B9B"/><stop class="spectrum-e" offset="0.8" stop-color="#BD812D"/><stop class="spectrum-f" offset="1" stop-color="#C66C5A"/></linearGradient>
    <linearGradient id="pillCool" x1="0" y1="0" x2="1" y2="1"><stop class="spectrum-a" stop-color="#86C9E8"/><stop offset="1" class="spectrum-a" stop-color="#4F8FBD"/></linearGradient>
    <linearGradient id="pillSage" x1="0" y1="0" x2="1" y2="1"><stop class="spectrum-c" stop-color="#8CC7A6"/><stop offset="1" class="spectrum-c" stop-color="#5D9476"/></linearGradient>
    <linearGradient id="pillAmber" x1="0" y1="0" x2="1" y2="1"><stop class="spectrum-e" stop-color="#E7B75E"/><stop offset="1" class="spectrum-e" stop-color="#BD812D"/></linearGradient>
    <linearGradient id="pillPlum" x1="0" y1="0" x2="1" y2="1"><stop class="spectrum-b" stop-color="#BE91B9"/><stop offset="1" class="spectrum-b" stop-color="#94618F"/></linearGradient>
    <linearGradient id="shimmerGradient" x1="0" y1="0" x2="1" y2="0"><stop stop-color="#FFFFFF" stop-opacity="0"/><stop offset="0.5" stop-color="#FFFFFF" stop-opacity="0.42"/><stop offset="1" stop-color="#FFFFFF" stop-opacity="0"/></linearGradient>
    <filter id="shadow" x="-35%" y="-35%" width="170%" height="190%"><feDropShadow dx="0" dy="24" stdDeviation="22" flood-color="#000000" flood-opacity="0.52"/><feDropShadow dx="0" dy="5" stdDeviation="6" flood-color="#000000" flood-opacity="0.32"/></filter>
    <filter id="softBlur" x="-50%" y="-50%" width="200%" height="200%"><feGaussianBlur stdDeviation="18"/></filter>
    <filter id="pillGlow" x="-60%" y="-100%" width="220%" height="300%"><feGaussianBlur in="SourceGraphic" stdDeviation="7" result="blur"/><feColorMatrix in="blur" type="matrix" values="1 0 0 0 0 0 1 0 0 0 0 0 1 0 0 0 0 0 .45 0" result="glow"/><feMerge><feMergeNode in="glow"/><feMergeNode in="SourceGraphic"/></feMerge></filter>
    <clipPath id="panelClip"><rect x="108" y="84" width="296" height="344" rx="72"/></clipPath>
  </defs>

  <rect width="512" height="512" fill="url(#bg)"/>
  <rect x="7" y="7" width="498" height="498" rx="108" fill="none" stroke="#FFFFFF" stroke-opacity="0.055" stroke-width="2"/>
  <g class="scene">
    <path d="M27 157C71 64 183 18 284 42c83 20 154 86 191 172" fill="none" stroke="#FFFFFF" stroke-opacity="0.045" stroke-width="2"/>
    <path d="M-10 402c103-74 213-87 330-38 61 25 111 66 160 123" fill="none" stroke="#FFFFFF" stroke-opacity="0.035" stroke-width="2"/>
    <circle class="orb orb-a" cx="126" cy="122" r="210" fill="url(#orbIce)"/>
    <circle class="orb orb-b" cx="406" cy="366" r="228" fill="url(#orbCoral)"/>
    <circle class="orb orb-c" cx="100" cy="430" r="186" fill="url(#orbSage)"/>
    <ellipse cx="257" cy="444" rx="142" ry="34" fill="#000000" fill-opacity="0.34" filter="url(#softBlur)"/>

    <g class="panel">
      <g filter="url(#shadow)"><rect x="108" y="84" width="296" height="344" rx="72" fill="url(#frame)" stroke="url(#frameStroke)" stroke-width="3"/><rect x="116" y="92" width="280" height="328" rx="64" fill="none" stroke="#FFFFFF" stroke-opacity="0.10"/></g>
      <g clip-path="url(#panelClip)"><path d="M93 102h319v92H93z" fill="url(#header)"/><path d="M116 94C206 78 310 112 402 88v64c-111 34-203-11-292 11z" fill="#FFFFFF" fill-opacity="0.055"/><path d="M109 330c74-47 169-31 296-72v170H109z" fill="#FFFFFF" fill-opacity="0.035"/><path d="M128 101L324 101 165 427H108V248z" fill="#FFFFFF" fill-opacity="0.075"/><rect class="shimmer" x="74" y="62" width="82" height="402" transform="rotate(18 115 263)" fill="url(#shimmerGradient)" opacity="0"/></g>
      <rect x="132" y="116" width="248" height="54" rx="19" fill="#0B1219" fill-opacity="0.28" stroke="#FFFFFF" stroke-opacity="0.15"/>
      <rect x="150" y="132" width="88" height="8" rx="4" fill="#FFFFFF" fill-opacity="0.82"/><rect x="150" y="147" width="54" height="6" rx="3" fill="#FFFFFF" fill-opacity="0.33"/>
      <circle cx="344" cy="143" r="10" fill="#FFFFFF" fill-opacity="0.18" stroke="#FFFFFF" stroke-opacity="0.25"/><circle class="status" cx="344" cy="143" r="4" fill="#86C9E8"/>
      <g>
        <rect x="132" y="188" width="248" height="208" rx="28" fill="#071018" fill-opacity="0.22" stroke="#FFFFFF" stroke-opacity="0.12"/>
        <rect x="144" y="200" width="38" height="184" rx="15" fill="url(#monthSpectrum)" opacity="0.92"/>
        <path d="M194 235H366M194 278H366M194 321H366M194 364H366" stroke="#FFFFFF" stroke-opacity="0.18" stroke-width="2"/>
        <path d="M248 204V380M306 204V380" stroke="#FFFFFF" stroke-opacity="0.12" stroke-width="2"/>
        <g fill="#FFFFFF" fill-opacity="0.25"><circle cx="163" cy="221" r="4"/><circle cx="163" cy="257" r="4"/><circle cx="163" cy="300" r="4"/><circle cx="163" cy="343" r="4"/><circle cx="163" cy="371" r="4"/></g>
        <g filter="url(#pillGlow)"><rect class="pill pill-1" x="203" y="212" width="72" height="13" rx="6.5" fill="url(#pillCool)"/><rect class="pill pill-2" x="314" y="248" width="38" height="13" rx="6.5" fill="url(#pillSage)"/><rect class="pill pill-3" x="258" y="291" width="68" height="13" rx="6.5" fill="url(#pillAmber)"/><rect class="pill pill-4" x="206" y="334" width="46" height="13" rx="6.5" fill="url(#pillPlum)"/></g>
        <g fill="#FFFFFF" fill-opacity="0.20"><rect x="288" y="212" width="60" height="13" rx="6.5"/><rect x="204" y="248" width="82" height="13" rx="6.5"/><rect x="204" y="291" width="39" height="13" rx="6.5"/><rect x="268" y="334" width="83" height="13" rx="6.5"/><rect x="204" y="368" width="61" height="8" rx="4"/><rect x="278" y="368" width="36" height="8" rx="4"/></g>
      </g>
      <path d="M143 104c63-22 158-17 228 11" fill="none" stroke="#FFFFFF" stroke-opacity="0.38" stroke-width="4" stroke-linecap="round"/>
      <path d="M123 178c73 22 185 22 270-4" fill="none" stroke="#FFFFFF" stroke-opacity="0.085" stroke-width="2"/>
      <circle cx="393" cy="108" r="9" fill="#FFFFFF" fill-opacity="0.16"/><circle cx="393" cy="108" r="3" fill="#FFFFFF" fill-opacity="0.62"/>
    </g>
  </g>
</svg>
